# xmcd
#
# Track frame offsets: 
#        150
#        17227
#        44711
#        62638
#        78772
#        94346
#        113901
#        135202
#        150133
#
# Disc length: 2238 seconds
#
# Revision: 0
# Processed by: cddbd v1.5.1PL2 Copyright (c) Steve Scherf et al.
# Submitted via: ExactAudioCopy v0.95a5
#
DISCID=6508bc09
DTITLE=Hastings Street Blues Band - Down On Hastings Street
DYEAR=1998
DGENRE=Blues
TTITLE0=Down On Hastings Street
TTITLE1=Pawn Shop Blues
TTITLE2=Hey Little Girl
TTITLE3=Finger Do The Walking
TTITLE4=Watered Down Blues
TTITLE5=Detroit Man
TTITLE6=Johnny's Moody Moods
TTITLE7=Want Some
TTITLE8=Pawn Shop Blues (edit)
EXTD=
EXTT0=
EXTT1=
EXTT2=
EXTT3=
EXTT4=
EXTT5=
EXTT6=
EXTT7=
EXTT8=
PLAYORDER=
